<mxfile>
  <diagram name="Simplified Cloud Architecture">
    <mxGraphModel dx="1110" dy="660" grid="1" gridSize="10" guides="1" tooltips="1" connect="1" arrows="1" fold="1" page="1" pageScale="1" pageWidth="1169" pageHeight="827" math="0" shadow="0">
      <root>
        <mxCell id="0" />
        <mxCell id="1" parent="0" />
        <!-- Mobile App -->
        <mxCell id="2" value="Mobile App" style="rounded=1;whiteSpace=wrap;html=1;fillColor=#D5E8D4;strokeColor=#82B366;" vertex="1" parent="1">
          <mxGeometry x="140" y="100" width="140" height="60" as="geometry" />
        </mxCell>
        <!-- Firebase Authentication -->
        <mxCell id="3" value="Firebase Authentication" style="rounded=1;whiteSpace=wrap;html=1;fillColor=#FFF2CC;strokeColor=#D6B656;" vertex="1" parent="1">
          <mxGeometry x="320" y="40" width="160" height="60" as="geometry" />
        </mxCell>
        <!-- Google Cloud Run -->
        <mxCell id="4" value="Google Cloud Run" style="rounded=1;whiteSpace=wrap;html=1;fillColor=#DAE8FC;strokeColor=#6C8EBF;" vertex="1" parent="1">
          <mxGeometry x="320" y="140" width="160" height="60" as="geometry" />
        </mxCell>
        <!-- Firebase Firestore -->
        <mxCell id="5" value="Firebase Firestore" style="rounded=1;whiteSpace=wrap;html=1;fillColor=#E1D5E7;strokeColor=#9673A6;" vertex="1" parent="1">
          <mxGeometry x="520" y="100" width="160" height="60" as="geometry" />
        </mxCell>
        <!-- Firebase Storage -->
        <mxCell id="6" value="Firebase Storage" style="rounded=1;whiteSpace=wrap;html=1;fillColor=#F8CECC;strokeColor=#B85450;" vertex="1" parent="1">
          <mxGeometry x="520" y="200" width="160" height="60" as="geometry" />
        </mxCell>
        <!-- Connections -->
        <mxCell id="7" style="edgeStyle=orthogonalEdgeStyle;rounded=1;orthogonalLoop=1;html=1;strokeColor=#82B366;" edge="1" parent="1" source="2" target="3">
          <mxGeometry relative="1" as="geometry" />
        </mxCell>
        <mxCell id="8" style="edgeStyle=orthogonalEdgeStyle;rounded=1;orthogonalLoop=1;html=1;strokeColor=#6C8EBF;" edge="1" parent="1" source="3" target="4">
          <mxGeometry relative="1" as="geometry" />
        </mxCell>
        <mxCell id="9" style="edgeStyle=orthogonalEdgeStyle;rounded=1;orthogonalLoop=1;html=1;strokeColor=#9673A6;" edge="1" parent="1" source="4" target="5">
          <mxGeometry relative="1" as="geometry" />
        </mxCell>
        <mxCell id="10" style="edgeStyle=orthogonalEdgeStyle;rounded=1;orthogonalLoop=1;html=1;strokeColor=#B85450;" edge="1" parent="1" source="4" target="6">
          <mxGeometry relative="1" as="geometry" />
        </mxCell>
      </root>
    </mxGraphModel>
  </diagram>
</mxfile>
